# xmcd
#
# Track frame offsets:
#	150
#	15861
#	33524
#	47924
#	67199
#	88367
#	103255
#	120827
#	140641
#	153449
#	171375
#
# Disc length: 2517 seconds
# Revision: 0
# Processed by: cddbd v1.5.2PL0 Copyright (c) Steve Scherf et al.
# Submitted via: dBpowerAMP V12.0
#
DISCID=9709d30b
DTITLE=Various Artist - God Don't Never Change: The Songs of Blind Willie Johnson
DYEAR=2016
DGENRE=Blues
TTITLE0=Tom Waits - The Soul of a Man
TTITLE1=Lucinda Williams - It's Nobody’s Fault But Mine
TTITLE2=Susan Tedeschi - Keep Your Lamp Trimmed and Burning
TTITLE3=Cowboy Junkies - Jesus Is Coming Soon
TTITLE4=The Blind Boys of Alabama - Mother’s Children Have a Hard Time
TTITLE5=Sinéad O'Connor - Trouble Will Soon Be Over
TTITLE6=Rising Star Fife and Drum Band - Bye and Bye I’m Going to See the King
TTITLE7=Lucinda Williams - God Don’t Never Change
TTITLE8=Tom Waits - John the Revelator
TTITLE9=Maria McKee - Let Your Light Shine on Me
TTITLE10=Rickie Lee Jones - Dark Was the Night, Cold Was the Ground
EXTD=
EXTT0=
EXTT1=
EXTT2=
EXTT3=
EXTT4=
EXTT5=
EXTT6=
EXTT7=
EXTT8=
EXTT9=
EXTT10=
PLAYORDER=
